<svg width="118" height="43" viewBox="0 0 118 43" fill="none" xmlns="http://www.w3.org/2000/svg">
<path d="M30.5979 2.18084C30.5976 2.18297 30.5991 2.18495 30.6013 2.1852C30.709 2.19741 30.817 2.2121 30.9252 2.22941C34.6805 2.83061 37.2289 6.31002 36.6172 10.0009C36.3156 11.8206 35.3021 13.3518 33.902 14.3648C33.8722 14.3864 33.8836 14.4332 33.9201 14.439C38.9937 15.2513 42.4367 19.9521 41.6103 24.9386C40.7839 29.9252 36.001 33.3091 30.9274 32.4969C30.7813 32.4735 30.6365 32.4467 30.4932 32.4169C30.4902 32.4163 30.4874 32.4183 30.4869 32.4212C30.4864 32.424 30.4837 32.4259 30.4809 32.4254L13.5901 29.7213C12.7743 29.5907 12.2208 28.8349 12.3536 28.0332L16.7589 1.45169C16.8918 0.649945 17.6608 0.105867 18.4765 0.23646L30.5947 2.17651C30.5968 2.17684 30.5983 2.17878 30.5979 2.18084Z" fill="#B3F5BA"/>
<path d="M16.1764 4.20367C16.177 4.20621 16.1797 4.20774 16.1822 4.20702C16.308 4.17185 16.4352 4.13927 16.5639 4.1096C21.0306 3.07946 25.5013 5.80329 26.5494 10.1934C27.0661 12.3578 26.6542 14.5231 25.5687 16.2858C25.5455 16.3234 25.5802 16.3703 25.6237 16.3603C31.6584 14.9685 37.6984 18.6485 39.1145 24.5797C40.5305 30.5109 36.7863 36.4474 30.7517 37.8392C30.5778 37.8793 30.4039 37.915 30.2302 37.9467C30.2266 37.9473 30.2243 37.9508 30.2252 37.9542C30.226 37.9576 30.2238 37.9609 30.2204 37.9617L9.82986 42.6644C9.02523 42.8499 8.21989 42.3593 8.03109 41.5684L0.341866 9.36162C0.153059 8.57078 0.652281 7.77925 1.45691 7.59368L16.1708 4.20025C16.1733 4.19968 16.1758 4.2012 16.1764 4.20367Z" fill="#67EA76"/>
<path d="M17.6855 24.1143C17.6855 23.4644 18.2216 22.9375 18.8829 22.9375C19.5441 22.9375 20.0802 23.4644 20.0802 24.1143V27.736C20.0802 28.3859 19.5441 28.9128 18.8829 28.9128C18.2216 28.9128 17.6855 28.3859 17.6855 27.736V24.1143Z" fill="#3C3C3C"/>
<path d="M23.0372 24.1143C23.0372 23.4644 23.5732 22.9375 24.2345 22.9375C24.8958 22.9375 25.4318 23.4644 25.4318 24.1143V27.736C25.4318 28.3859 24.8958 28.9128 24.2345 28.9128C23.5732 28.9128 23.0372 28.3859 23.0372 27.736V24.1143Z" fill="#3C3C3C"/>
<path d="M14.8347 29.5313C15.2373 29.5251 15.5736 29.8175 15.6256 30.2004C15.6262 30.2023 15.6268 30.2045 15.6276 30.207C15.6379 30.2404 15.6572 30.2944 15.6867 30.3659C15.7456 30.5085 15.8356 30.6951 15.9529 30.8894C16.2366 31.3596 16.561 31.6938 17.0919 32.234C17.2927 32.4384 17.5108 32.5337 17.9622 32.7501C18.4931 33.0046 18.8821 33.0445 19.1998 33.0863C19.5356 33.1203 20.1778 33.1541 20.6732 33.1729H20.6733C20.7556 33.1758 20.9375 33.1769 21.1886 33.1954C21.6213 33.2273 21.9458 33.598 21.9133 34.0232C21.8809 34.4485 21.5038 34.7674 21.0711 34.7355C20.8598 34.7199 20.7503 34.721 20.6161 34.7162H20.6153L20.6145 34.7161C20.1138 34.6972 19.4175 34.6616 19.0273 34.6215L19.0156 34.6203L19.0039 34.6188C18.6813 34.5759 18.0618 34.5162 17.2732 34.1381C16.9145 33.9661 16.3979 33.7509 15.9616 33.3069C15.4479 32.7841 14.9931 32.3266 14.6013 31.6772C14.4415 31.4123 14.3173 31.1562 14.231 30.9473C14.1879 30.8432 14.1516 30.7444 14.1245 30.6569C14.1069 30.6002 14.064 30.4607 14.0616 30.3157C14.0547 29.8894 14.4009 29.5382 14.8347 29.5313ZM15.6328 30.2912C15.6326 30.28 15.632 30.2697 15.6314 30.2604C15.632 30.2706 15.6326 30.2809 15.6328 30.2912Z" fill="#3C3C3C"/>
<path d="M23.4629 16.334C23.228 15.5552 23.68 14.7367 24.4724 14.5058L35.064 11.4197C35.8564 11.1888 36.6892 11.633 36.9241 12.4118L37.3028 13.6674C37.5377 14.4462 37.0858 15.2647 36.2934 15.4956L25.7018 18.5817C24.9094 18.8126 24.0766 18.3684 23.8417 17.5896L23.4629 16.334Z" fill="#FF6442"/>
<ellipse cx="1.22474" cy="1.20711" rx="1.22474" ry="1.20711" transform="matrix(0.960076 -0.27974 0.288778 0.957396 24.5908 15.4316)" fill="#DBFFF8"/>
<path d="M109.967 37.1036C108.431 37.1036 107.443 36.1891 107.443 34.3234C107.443 33.921 107.48 31.9091 107.407 31.0311C107.333 30.0068 107.151 29.8971 106.053 29.8239C101.883 29.5678 97.2736 29.5678 92.0059 30.1166C89.1891 30.4092 87.8722 29.5313 87.8722 27.7388C87.8722 26.0926 88.8233 25.3244 91.384 25.1415C96.8346 24.7391 102.688 24.7391 109.126 25.1049C112.199 25.2878 112.638 26.2755 112.748 28.2143C112.894 30.519 112.857 33.3357 112.748 34.5063C112.601 36.5549 111.431 37.1036 109.967 37.1036ZM84.9091 19.069C84.7627 16.7278 84.7627 13.3623 84.9091 10.1431C85.0188 7.87506 85.8602 7.03369 87.5429 6.92394C89.1525 6.8142 90.9084 6.8142 92.2985 6.92394C93.7984 7.03369 94.8226 7.72873 94.7495 9.33832C94.6763 10.8747 93.7252 11.3503 92.6643 11.3503H90.8353C90.1768 11.3503 90.0305 11.4966 89.9573 12.5209C89.8841 13.8744 89.8841 15.5937 89.9573 16.9107C90.0305 17.7155 90.1768 17.8618 90.8353 17.8618H92.7375C93.9813 17.8618 94.9324 18.2642 95.0055 19.8006C95.0787 21.4102 94.0544 22.1784 92.5546 22.2881C91.1645 22.3979 89.1525 22.3979 87.5429 22.2881C85.8602 22.1784 85.0554 21.337 84.9091 19.069ZM95.7372 19.1421C95.664 16.2888 95.6274 13.472 95.7372 9.99678C95.8103 7.72873 96.6883 6.88736 98.371 6.77762C99.9806 6.66787 101.919 6.74104 103.31 6.85078C104.809 6.96053 105.76 7.54583 105.76 9.15541C105.76 10.6553 104.846 11.2771 103.383 11.2406C102.578 11.2406 102.139 11.204 101.627 11.2406C100.968 11.2771 100.785 11.3503 100.785 12.3746C100.785 13.7281 100.749 15.8132 100.785 16.7278C100.822 17.6057 100.968 17.7886 101.627 17.8252C102.139 17.8618 103.053 17.8618 103.749 17.8252C105.212 17.752 106.236 18.3373 106.236 19.9469C106.236 21.5565 105.285 22.1418 103.785 22.2516C102.395 22.3613 99.9806 22.3979 98.371 22.2881C96.6883 22.1784 95.8103 21.4102 95.7372 19.1421ZM107.443 9.7773C107.297 7.07027 108.138 5.93624 109.821 5.89966C111.54 5.86308 112.711 6.63129 112.748 10.0334C112.748 10.7284 112.784 11.643 112.784 12.6672C113.735 12.6672 114.686 12.7038 115.418 12.777C116.625 12.8867 117.174 13.8013 117.174 15.0084C117.174 16.1059 116.625 17.0936 115.345 17.2399C114.723 17.3131 113.735 17.3497 112.784 17.3497L112.674 21.1541C112.565 22.8369 111.796 23.788 110.15 23.788C108.504 23.788 107.553 22.9466 107.59 21.3004C107.626 18.191 107.626 13.033 107.443 9.7773Z" fill="#3C3C3C"/>
<path d="M79.6072 24.3733C74.6687 24.483 60.5117 24.4099 53.927 24.3367C51.9882 24.3001 51.0005 23.349 51.0005 21.8492C51.0005 20.6054 51.8053 19.5079 54.1465 19.5811C56.5974 19.6543 60.1824 19.6543 63.9869 19.6543V18.4105C63.9869 17.9715 64.0601 17.6057 64.1332 17.2399C63.9137 17.2765 63.6942 17.3131 63.4382 17.3131C61.0604 17.3862 58.9387 17.3862 57.1096 17.3131C54.805 17.2033 54.1831 16.3254 54.1099 14.8621C54.0367 13.4354 54.0002 10.3992 54.1099 8.86275C54.1831 7.39949 54.805 6.44837 57.1096 6.37521C59.2313 6.30205 62.5602 6.30205 63.8772 6.41179C65.3038 6.52153 65.8526 7.32633 65.8526 8.49693C65.8526 9.70412 65.377 10.4723 63.804 10.4723H59.9264C59.524 10.4723 59.3411 10.6552 59.3411 11.0211V12.7404C59.3411 13.1062 59.524 13.2891 59.8898 13.2891H63.3284C65.2307 13.2891 66.1452 13.7647 66.1452 15.3011V15.4108C66.4013 15.3742 66.6573 15.3377 66.95 15.3377H67.0597L67.0232 14.8621C66.95 13.4354 66.9134 10.3992 67.0232 8.86275C67.0963 7.39949 67.7182 6.44837 70.0228 6.37521C72.1446 6.30205 76.0588 6.30205 77.3757 6.41179C78.8024 6.52153 79.3511 7.32633 79.3511 8.49693C79.3511 9.70412 78.8755 10.4723 77.3025 10.4723H72.8396C72.4372 10.4723 72.2543 10.6552 72.2543 11.0211V12.7404C72.2543 13.1062 72.4372 13.2891 72.803 13.2891H76.827C78.7292 13.2891 79.6437 13.7647 79.6437 15.3011C79.6437 16.5083 78.9487 17.2399 76.9367 17.3131C74.5589 17.3862 71.8519 17.3862 70.0228 17.3131H69.7668C69.8765 17.6057 69.9131 18.0081 69.9131 18.4105V19.6543C73.681 19.6177 77.1196 19.5811 79.2779 19.5079C81.7655 19.4348 82.4605 20.6054 82.4605 21.9223C82.4605 23.3124 81.4728 24.3367 79.6072 24.3733ZM54.1099 28.6533C54.2562 27.0071 55.2439 26.4584 57.8412 26.3487C63.2919 26.1658 69.0351 26.2389 75.3271 26.4218C78.4 26.495 78.839 27.5924 78.9487 29.5313C79.095 31.8359 79.0584 33.3357 78.9487 34.5063C78.8024 36.5549 77.6318 37.1036 76.1685 37.1036C74.6321 37.1036 73.6444 36.1891 73.6444 34.3234C73.6444 33.921 73.681 33.1528 73.681 32.2017C73.681 31.1774 73.4249 31.0311 72.3275 30.9945C68.1938 30.9214 62.8529 31.0311 58.0607 31.1408C55.2074 31.214 53.9636 30.4092 54.1099 28.6533Z" fill="#3C3C3C"/>
</svg>
