<svg width="20" height="20" viewBox="0 0 20 20" fill="none" xmlns="http://www.w3.org/2000/svg">
<circle cx="9.77386" cy="9.77386" r="9.77386" transform="matrix(-1 0 0 1 19.5477 0)" fill="#FEE15E"/>
<path d="M14.6759 10.9005C14.7836 10.8839 14.8913 10.8425 14.999 10.7762C15.0984 10.7099 15.1854 10.6271 15.2599 10.5277C15.3262 10.42 15.3801 10.2998 15.4215 10.1673C15.4546 10.0347 15.4629 9.89387 15.4463 9.74474C15.4132 9.42992 15.2972 9.19381 15.0984 9.0364C14.8995 8.87899 14.6883 8.80856 14.4646 8.82513C14.5309 8.37776 14.593 7.95523 14.651 7.55756C14.709 7.15989 14.7504 6.80365 14.7753 6.48882C14.7918 6.34798 14.7753 6.22371 14.7256 6.11601C14.6676 6.00002 14.593 5.90475 14.5019 5.83018C14.4107 5.74734 14.3072 5.68106 14.1912 5.63135C14.0669 5.58164 13.9427 5.55264 13.8184 5.54436C13.5533 5.5195 13.313 5.56507 13.0976 5.68106C12.8822 5.79704 12.7538 5.99588 12.7124 6.27756C12.6792 6.54267 12.6378 6.91549 12.5881 7.39601C12.5384 7.86824 12.4804 8.37776 12.4141 8.92455C12.1987 8.94112 11.975 8.94941 11.743 8.94941C11.5111 8.94941 11.2708 8.94941 11.0223 8.94941C10.9311 8.47717 10.8524 8.02565 10.7862 7.59484C10.7116 7.16403 10.6619 6.80779 10.637 6.52611C10.6122 6.23614 10.5003 6.0373 10.3015 5.9296C10.1027 5.81361 9.88725 5.75562 9.65528 5.75562C9.49787 5.7639 9.36117 5.79704 9.24518 5.85504C9.12919 5.90475 9.03392 5.97102 8.95935 6.05387C8.87651 6.12844 8.81851 6.21543 8.78537 6.31484C8.74395 6.41426 8.72324 6.51368 8.72324 6.6131C8.73981 6.80365 8.76052 7.00248 8.78537 7.2096C8.80194 7.40844 8.8268 7.6197 8.85994 7.84339C8.81851 8.02565 8.77709 8.20792 8.73567 8.39018C8.68596 8.57245 8.63211 8.75886 8.57411 8.94941C8.29243 8.94941 8.02317 8.94941 7.76635 8.94941C7.50123 8.94112 7.24855 8.93284 7.00829 8.92455C6.96686 8.42746 6.93372 7.9428 6.90887 7.47057C6.87573 6.99834 6.85088 6.5841 6.83431 6.22785C6.81774 6.00416 6.70589 5.82604 6.49877 5.69348C6.28337 5.55264 6.03068 5.50293 5.74072 5.54436C5.61644 5.56093 5.49631 5.59407 5.38033 5.64378C5.26434 5.6852 5.16492 5.74734 5.08207 5.83018C4.99094 5.90475 4.92052 5.99588 4.87081 6.10358C4.81282 6.21128 4.78796 6.33141 4.79625 6.46397C4.81282 6.81193 4.84182 7.18475 4.88324 7.58242C4.92466 7.98009 4.97437 8.39847 5.03237 8.83756C4.82525 8.85413 4.63884 8.94941 4.47314 9.12339C4.30745 9.28908 4.20803 9.50449 4.17489 9.7696C4.15832 9.92701 4.17075 10.072 4.21217 10.2046C4.2536 10.3371 4.31159 10.4531 4.38615 10.5525C4.46072 10.6519 4.54771 10.7306 4.64712 10.7886C4.74654 10.8466 4.8501 10.8839 4.9578 10.9005C5.0158 10.9088 5.07793 10.917 5.14421 10.9253C5.21049 10.9336 5.28505 10.9419 5.3679 10.9502C5.42589 11.2981 5.48803 11.6295 5.55431 11.9444C5.62059 12.2509 5.69101 12.5367 5.76557 12.8018C5.83185 13.0587 5.89813 13.2865 5.9644 13.4853C6.0224 13.6759 6.08453 13.8209 6.15081 13.9203C6.20052 14.0031 6.2668 14.0943 6.34965 14.1937C6.42421 14.2848 6.51949 14.3677 6.63547 14.4422C6.74317 14.5251 6.87159 14.5913 7.02071 14.6411C7.16156 14.6908 7.32725 14.7156 7.5178 14.7156C7.70835 14.7156 7.87819 14.6866 8.02732 14.6286C8.16816 14.5789 8.29243 14.5126 8.40013 14.4298C8.50783 14.3469 8.59482 14.2558 8.6611 14.1564C8.72738 14.057 8.78123 13.9658 8.82266 13.883C8.93864 13.6345 9.0712 13.2699 9.22033 12.7894C9.36945 12.3089 9.52686 11.7911 9.69256 11.236C9.85825 11.7911 10.0239 12.3006 10.1896 12.7645C10.3471 13.2202 10.4838 13.5889 10.5997 13.8706C10.6329 13.9534 10.6867 14.0445 10.7613 14.144C10.8359 14.2434 10.927 14.3345 11.0347 14.4174C11.1424 14.5085 11.2667 14.5789 11.4075 14.6286C11.5484 14.6866 11.7099 14.7156 11.8922 14.7156C12.2401 14.7156 12.5384 14.6328 12.7869 14.4671C13.0355 14.3014 13.2053 14.1108 13.2964 13.8954C13.3461 13.7877 13.4041 13.6386 13.4704 13.448C13.5284 13.2575 13.5906 13.0338 13.6568 12.777C13.7231 12.5201 13.7935 12.2385 13.8681 11.9319C13.9344 11.6171 14.0006 11.294 14.0669 10.9626C14.1995 10.946 14.3196 10.9378 14.4273 10.9378C14.5267 10.9295 14.6096 10.917 14.6759 10.9005ZM12.1283 11.0372C12.1117 11.1366 12.0951 11.2319 12.0786 11.323C12.062 11.4141 12.0454 11.5053 12.0289 11.5964C11.9957 11.7621 11.9377 11.8449 11.8549 11.8449C11.7638 11.8367 11.6933 11.7538 11.6436 11.5964C11.6188 11.5135 11.5939 11.4266 11.5691 11.3354C11.5442 11.2443 11.5194 11.149 11.4945 11.0496C11.6022 11.0496 11.7099 11.0496 11.8176 11.0496C11.917 11.0413 12.0206 11.0372 12.1283 11.0372ZM7.91547 11.0496C7.89062 11.1159 7.86991 11.1822 7.85334 11.2484C7.82848 11.3064 7.80363 11.3644 7.77877 11.4224C7.71249 11.6295 7.6255 11.7207 7.5178 11.6958C7.4101 11.6627 7.34382 11.5633 7.31897 11.3976C7.3024 11.3396 7.29411 11.2816 7.29411 11.2236C7.28583 11.1656 7.2734 11.1035 7.25683 11.0372C7.36453 11.0372 7.47224 11.0413 7.57994 11.0496C7.68764 11.0496 7.79948 11.0496 7.91547 11.0496Z" fill="#3C3C3C"/>
</svg>
