<svg width="54" height="54" viewBox="0 0 54 54" fill="none" xmlns="http://www.w3.org/2000/svg">
<g filter="url(#filter0_d_795_8038)">
<circle cx="26.5273" cy="22.5273" r="16.5273" fill="#EAEAEA"/>
</g>
<circle cx="26.5273" cy="22.5273" r="17.5" fill="#EAEAEA"/>
<path d="M32.443 10.96C32.4428 10.9612 32.4437 10.9624 32.445 10.9626C32.5091 10.9699 32.5734 10.9787 32.6377 10.9891C34.8722 11.349 36.3885 13.4321 36.0245 15.6418C35.8451 16.7313 35.242 17.6481 34.409 18.2545C34.3912 18.2674 34.398 18.2955 34.4197 18.299C37.4385 18.7853 39.4872 21.5996 38.9955 24.5851C38.5037 27.5705 35.6579 29.5965 32.6391 29.1102C32.5521 29.0962 32.466 29.0802 32.3806 29.0624C32.3789 29.062 32.3772 29.0632 32.3769 29.0649C32.3767 29.0666 32.375 29.0677 32.3734 29.0674L22.3232 27.4485C21.8378 27.3703 21.5084 26.9178 21.5875 26.4378L24.2087 10.5234C24.2877 10.0434 24.7453 9.71768 25.2306 9.79587L32.4411 10.9574C32.4423 10.9576 32.4432 10.9587 32.443 10.96Z" fill="#D5D6D6"/>
<path d="M23.8621 12.1716C23.8625 12.1731 23.864 12.174 23.8656 12.1736C23.9404 12.1525 24.0161 12.133 24.0927 12.1153C26.7504 11.4985 29.4105 13.1293 30.0341 15.7576C30.3416 17.0535 30.0965 18.3498 29.4506 19.4052C29.4368 19.4277 29.4574 19.4558 29.4833 19.4498C33.074 18.6165 36.6679 20.8197 37.5105 24.3707C38.353 27.9218 36.1252 31.476 32.5345 32.3092C32.4311 32.3332 32.3276 32.3546 32.2242 32.3736C32.2221 32.374 32.2208 32.376 32.2213 32.3781C32.2217 32.3801 32.2205 32.3821 32.2184 32.3826L20.0859 35.198C19.6071 35.3092 19.1279 35.0154 19.0156 34.5419L14.4404 15.2596C14.3281 14.7862 14.6251 14.3123 15.1039 14.2012L23.8588 12.1695C23.8603 12.1692 23.8618 12.1701 23.8621 12.1716Z" fill="#BFC2C2"/>
<path opacity="0.2" d="M36.2352 11.8159L26.3799 36.5548L18.9884 38.6855L17.0379 30.5179L26.3799 9.80273L36.2352 11.8159Z" fill="#F9FAFC"/>
<rect x="21.4444" y="18.1875" width="12.1562" height="5.09138" rx="2" transform="rotate(-12.496 21.4444 18.1875)" fill="#EAEAEA"/>
<circle cx="24.9951" cy="20.0102" r="1.27271" transform="rotate(-12.496 24.9951 20.0102)" fill="#D5D6D6"/>
<path d="M23.4771 25.7109L24.3564 28.0874L26.7329 28.9668L24.3564 29.8462L23.4771 32.2227L22.5977 29.8462L20.2212 28.9668L22.5977 28.0874L23.4771 25.7109Z" fill="#F5F5F5"/>
<defs>
<filter id="filter0_d_795_8038" x="0" y="0" width="53.0547" height="53.0547" filterUnits="userSpaceOnUse" color-interpolation-filters="sRGB">
<feFlood flood-opacity="0" result="BackgroundImageFix"/>
<feColorMatrix in="SourceAlpha" type="matrix" values="0 0 0 0 0 0 0 0 0 0 0 0 0 0 0 0 0 0 127 0" result="hardAlpha"/>
<feOffset dy="4"/>
<feGaussianBlur stdDeviation="5"/>
<feComposite in2="hardAlpha" operator="out"/>
<feColorMatrix type="matrix" values="0 0 0 0 0.172549 0 0 0 0 0.2 0 0 0 0 0.2 0 0 0 0.04 0"/>
<feBlend mode="normal" in2="BackgroundImageFix" result="effect1_dropShadow_795_8038"/>
<feBlend mode="normal" in="SourceGraphic" in2="effect1_dropShadow_795_8038" result="shape"/>
</filter>
</defs>
</svg>
