<svg width="50" height="50" viewBox="0 0 50 50" fill="none" xmlns="http://www.w3.org/2000/svg">
<rect width="50" height="50" rx="25" fill="#FFE7E1"/>
<rect x="9.78168" y="9.78125" width="30.4366" height="30.4366" rx="6.06764" fill="#FF8A65"/>
<path d="M37.855 21.5C38.1085 21.5999 40.2954 23.6476 42.4523 26.3985C42.7845 26.9459 42.9791 27.386 43.0983 27.6817C43.2175 27.9775 43.2553 28.1154 43.3798 28.4986" stroke="#FF8A65" stroke-width="3.94397" stroke-linecap="round"/>
<path d="M11.1842 21.5C10.9307 21.5999 8.74382 23.6476 6.58691 26.3985C6.25472 26.9459 6.06013 27.386 5.94096 27.6817C5.82179 27.9775 5.78393 28.1154 5.65942 28.4986" stroke="#FF8A65" stroke-width="3.94397" stroke-linecap="round"/>
<path d="M17.8052 19.2889C17.8052 18.425 18.5056 17.7246 19.3695 17.7246C20.2335 17.7246 20.9338 18.425 20.9338 19.2889V24.1032C20.9338 24.9671 20.2335 25.6675 19.3695 25.6675C18.5056 25.6675 17.8052 24.9671 17.8052 24.1032V19.2889Z" fill="#3C3C3C"/>
<path d="M24.7971 19.2889C24.7971 18.425 25.4975 17.7246 26.3614 17.7246C27.2254 17.7246 27.9257 18.425 27.9257 19.2889V24.1032C27.9257 24.9671 27.2254 25.6675 26.3614 25.6675C25.4975 25.6675 24.7971 24.9671 24.7971 24.1032V19.2889Z" fill="#3C3C3C"/>
<path d="M33.4144 27.0138C32.8885 27.0054 32.449 27.3942 32.3811 27.9031C32.3803 27.9057 32.3795 27.9087 32.3785 27.9119C32.365 27.9563 32.3399 28.0282 32.3012 28.1232C32.2243 28.3127 32.1067 28.5607 31.9535 28.8191C31.5828 29.4441 31.159 29.8883 30.4654 30.6065C30.203 30.8782 29.9181 31.0047 29.3283 31.2924C28.6347 31.6308 28.1265 31.6839 27.7114 31.7394C27.2727 31.7846 26.4337 31.8295 25.7864 31.8545H25.7863C25.6788 31.8584 25.4411 31.8598 25.1131 31.8844C24.5478 31.9268 24.1238 32.4195 24.1662 32.9848C24.2086 33.5501 24.7013 33.974 25.2666 33.9316C25.5426 33.9109 25.6857 33.9124 25.861 33.906H25.862L25.8631 33.9059C26.5173 33.8807 27.427 33.8334 27.9368 33.7801L27.952 33.7785L27.9673 33.7765C28.3888 33.7195 29.1982 33.6401 30.2285 33.1375C30.6972 32.9089 31.3721 32.6229 31.9421 32.0326C32.6133 31.3376 33.2074 30.7295 33.7193 29.8663C33.9282 29.5141 34.0904 29.1737 34.2032 28.8961C34.2595 28.7576 34.3069 28.6262 34.3423 28.51C34.3653 28.4346 34.4214 28.2492 34.4244 28.0565C34.4334 27.4897 33.9812 27.0228 33.4144 27.0138ZM32.3717 28.0238C32.3719 28.009 32.3727 27.9953 32.3735 27.983C32.3727 27.9965 32.3719 28.0102 32.3717 28.0238Z" fill="#3C3C3C"/>
</svg>
