<svg width="50" height="50" viewBox="0 0 50 50" fill="none" xmlns="http://www.w3.org/2000/svg">
<path fill-rule="evenodd" clip-rule="evenodd" d="M33.3334 18.7498C33.3334 20.96 32.4554 23.0796 30.8926 24.6424C29.3298 26.2052 27.2102 27.0832 25.0001 27.0832C22.7899 27.0832 20.6703 26.2052 19.1075 24.6424C17.5447 23.0796 16.6667 20.96 16.6667 18.7498C16.6667 16.5397 17.5447 14.4201 19.1075 12.8573C20.6703 11.2945 22.7899 10.4165 25.0001 10.4165C27.2102 10.4165 29.3298 11.2945 30.8926 12.8573C32.4554 14.4201 33.3334 16.5397 33.3334 18.7498ZM29.1667 18.7498C29.1667 19.8549 28.7278 20.9147 27.9464 21.6961C27.165 22.4775 26.1051 22.9165 25.0001 22.9165C23.895 22.9165 22.8352 22.4775 22.0538 21.6961C21.2724 20.9147 20.8334 19.8549 20.8334 18.7498C20.8334 17.6448 21.2724 16.585 22.0538 15.8036C22.8352 15.0222 23.895 14.5832 25.0001 14.5832C26.1051 14.5832 27.165 15.0222 27.9464 15.8036C28.7278 16.585 29.1667 17.6448 29.1667 18.7498Z" fill="#3C3C3C"/>
<path fill-rule="evenodd" clip-rule="evenodd" d="M25 2.08337C12.3438 2.08337 2.08334 12.3438 2.08334 25C2.08334 37.6563 12.3438 47.9167 25 47.9167C37.6563 47.9167 47.9167 37.6563 47.9167 25C47.9167 12.3438 37.6563 2.08337 25 2.08337ZM6.25 25C6.25 29.3542 7.73542 33.3625 10.225 36.5459C11.9738 34.2503 14.2295 32.3899 16.8159 31.1099C19.4023 29.8299 22.2496 29.1648 25.1354 29.1667C27.9841 29.1634 30.796 29.8107 33.3565 31.0592C35.9171 32.3077 38.1587 34.1244 39.9104 36.3709C41.7155 34.0034 42.9309 31.2401 43.456 28.3096C43.9812 25.3791 43.8009 22.3657 42.9302 19.5188C42.0595 16.6718 40.5234 14.0731 38.4489 11.9376C36.3745 9.80218 33.8214 8.19141 31.0008 7.2386C28.1802 6.28579 25.1733 6.01831 22.2289 6.45832C19.2844 6.89832 16.4871 8.03315 14.0683 9.7689C11.6495 11.5047 9.67878 13.7914 8.31923 16.44C6.95968 19.0886 6.25038 22.0229 6.25 25ZM25 43.75C20.6956 43.757 16.5211 42.2762 13.1833 39.5584C14.5267 37.6347 16.315 36.064 18.396 34.9802C20.477 33.8963 22.7891 33.3314 25.1354 33.3334C27.4525 33.3313 29.7365 33.8822 31.7979 34.9403C33.8592 35.9983 35.6384 37.533 36.9875 39.4167C33.6239 42.223 29.3805 43.7569 25 43.75Z" fill="#3C3C3C"/>
</svg>
