<svg width="67" height="67" viewBox="0 0 67 67" fill="none" xmlns="http://www.w3.org/2000/svg">
<path d="M27.45 5.75695C28.9898 -0.585651 38.0102 -0.585648 39.55 5.75695C40.5446 9.85419 45.2388 11.7986 48.8393 9.60474C54.413 6.20863 60.7914 12.587 57.3953 18.1607C55.2014 21.7612 57.1458 26.4554 61.2431 27.45C67.5857 28.9898 67.5857 38.0102 61.2431 39.55C57.1458 40.5446 55.2014 45.2388 57.3953 48.8393C60.7914 54.413 54.413 60.7914 48.8393 57.3953C45.2388 55.2014 40.5446 57.1458 39.55 61.2431C38.0102 67.5857 28.9898 67.5857 27.45 61.2431C26.4554 57.1458 21.7612 55.2014 18.1607 57.3953C12.587 60.7914 6.20863 54.413 9.60474 48.8393C11.7986 45.2388 9.85419 40.5446 5.75695 39.55C-0.585648 38.0102 -0.585651 28.9898 5.75695 27.45C9.85419 26.4554 11.7986 21.7612 9.60473 18.1607C6.20863 12.587 12.587 6.20863 18.1607 9.60473C21.7612 11.7986 26.4554 9.85419 27.45 5.75695Z" stroke="#545F71" stroke-width="2" stroke-linecap="round" stroke-linejoin="round"/>
<path d="M44.3333 33.5C44.3333 39.4831 39.4831 44.3333 33.5 44.3333C27.5169 44.3333 22.6667 39.4831 22.6667 33.5C22.6667 27.5169 27.5169 22.6667 33.5 22.6667C39.4831 22.6667 44.3333 27.5169 44.3333 33.5Z" stroke="#545F71" stroke-width="2" stroke-linecap="round" stroke-linejoin="round"/>
</svg>
