<svg width="66" height="66" viewBox="0 0 66 66" fill="none" xmlns="http://www.w3.org/2000/svg">
<path d="M27.2518 3.91773C29.1848 -1.30597 36.5731 -1.30598 38.5061 3.91772L43.8509 18.362C44.4586 20.0043 45.7535 21.2992 47.3958 21.9069L61.8401 27.2518C67.0638 29.1847 67.0638 36.5731 61.8401 38.506L47.3958 43.8509C45.7535 44.4586 44.4586 45.7535 43.8509 47.3958L38.5061 61.8401C36.5731 67.0638 29.1848 67.0638 27.2518 61.8401L21.907 47.3958C21.2993 45.7535 20.0044 44.4586 18.3621 43.8509L3.91778 38.506C-1.30593 36.5731 -1.30594 29.1847 3.91777 27.2518L18.3621 21.9069C20.0044 21.2992 21.2993 20.0043 21.907 18.362L27.2518 3.91773Z" fill="white"/>
</svg>
