<svg width="211" height="205" viewBox="0 0 211 205" fill="none" xmlns="http://www.w3.org/2000/svg">
<path d="M142.887 10.362C142.885 10.3721 142.892 10.3816 142.903 10.3827C143.406 10.4408 143.91 10.5105 144.416 10.5928C161.952 13.4493 173.853 29.9814 170.997 47.5181C169.588 56.1643 164.855 63.4398 158.317 68.2528C158.178 68.3553 158.231 68.5777 158.401 68.6055C182.094 72.4648 198.173 94.8001 194.314 118.493C190.455 142.186 168.119 158.265 144.426 154.405C143.743 154.294 143.067 154.167 142.398 154.026C142.384 154.023 142.371 154.032 142.369 154.046C142.366 154.059 142.354 154.068 142.34 154.066L63.4617 141.218C59.6523 140.597 57.0672 137.006 57.6877 133.196L78.26 6.89755C78.8805 3.08814 82.4717 0.503015 86.2811 1.12352L142.872 10.3414C142.882 10.343 142.889 10.3522 142.887 10.362Z" fill="#E1FBE3"/>
<path d="M75.5424 19.9798C75.5453 19.9919 75.5577 19.9992 75.5696 19.9958C76.157 19.8286 76.7511 19.6738 77.3519 19.5329C98.211 14.6383 119.089 27.5802 123.983 48.4393C126.397 58.7234 124.473 69.0114 119.404 77.3867C119.296 77.5653 119.457 77.7884 119.66 77.7407C147.842 71.1279 176.049 88.6128 182.661 116.794C189.274 144.976 171.789 173.183 143.608 179.796C142.796 179.986 141.984 180.155 141.172 180.306C141.156 180.309 141.145 180.326 141.149 180.342C141.153 180.358 141.143 180.374 141.127 180.378L45.9047 202.722C42.1471 203.603 38.3862 201.272 37.5045 197.514L1.59648 44.4872C0.714763 40.7297 3.04609 36.9688 6.80365 36.0871L75.5163 19.9636C75.528 19.9609 75.5397 19.9681 75.5424 19.9798Z" fill="#67EA76"/>
<path d="M82.5883 114.581C82.5883 111.493 85.0916 108.99 88.1797 108.99C91.2677 108.99 93.7711 111.493 93.7711 114.581V131.789C93.7711 134.877 91.2677 137.381 88.1797 137.381C85.0916 137.381 82.5883 134.877 82.5883 131.789V114.581Z" fill="#3C3C3C"/>
<path d="M107.58 114.581C107.58 111.493 110.083 108.99 113.171 108.99C116.259 108.99 118.763 111.493 118.763 114.581V131.789C118.763 134.877 116.259 137.381 113.171 137.381C110.083 137.381 107.58 134.877 107.58 131.789V114.581Z" fill="#3C3C3C"/>
<path d="M69.2775 140.325C71.1573 140.295 72.7281 141.685 72.9709 143.504C72.9737 143.513 72.9766 143.524 72.9801 143.535C73.0285 143.694 73.1183 143.951 73.2563 144.291C73.5315 144.968 73.9516 145.854 74.4992 146.778C75.8242 149.012 77.3393 150.6 79.8183 153.167C80.7563 154.138 81.7747 154.59 83.8826 155.619C86.3618 156.828 88.1784 157.018 89.6621 157.216C91.2302 157.378 94.2292 157.538 96.5426 157.628H96.5431C96.9274 157.642 97.7771 157.647 98.9495 157.735C100.97 157.886 102.486 159.647 102.334 161.668C102.183 163.688 100.421 165.204 98.4008 165.052C97.4141 164.978 96.9029 164.983 96.2761 164.961H96.2725L96.2688 164.96C93.9305 164.87 90.6786 164.701 88.8566 164.51L88.802 164.505L88.7473 164.497C87.2409 164.294 84.3478 164.01 80.6652 162.214C78.9899 161.397 76.5776 160.374 74.5401 158.264C72.141 155.78 70.0173 153.606 68.1876 150.521C67.4411 149.262 66.8613 148.046 66.458 147.053C66.2569 146.558 66.0874 146.089 65.9608 145.673C65.8787 145.404 65.6782 144.741 65.6672 144.052C65.635 142.026 67.2515 140.358 69.2775 140.325ZM73.0045 143.935C73.0036 143.882 73.0008 143.833 72.998 143.789C73.0007 143.838 73.0037 143.887 73.0045 143.935Z" fill="#3C3C3C"/>
<path d="M109.566 77.6065C108.469 73.906 110.58 70.0169 114.28 68.9199L163.742 54.2566C167.443 53.1596 171.332 55.2701 172.429 58.9705L174.197 64.9363C175.294 68.6367 173.184 72.5258 169.483 73.6228L120.021 88.2861C116.321 89.3832 112.432 87.2727 111.335 83.5722L109.566 77.6065Z" fill="#FF8A65"/>
<circle cx="121.955" cy="77.1789" r="5.72731" transform="rotate(-16.5128 121.955 77.1789)" fill="#DBFFF8"/>
</svg>
