<svg width="95" height="95" viewBox="0 0 95 95" fill="none" xmlns="http://www.w3.org/2000/svg">
<g clip-path="url(#clip0_842_43757)">
<rect width="94.3633" height="94.3633" rx="47.1816" fill="#FFF3C2"/>
<path d="M31.3228 20.3288C34.2379 12.0095 45.0656 9.96567 50.8128 16.6498L81.5692 52.4207C87.3164 59.1049 83.6725 69.5039 75.0103 71.139L28.6536 79.8894C19.9914 81.5245 12.8074 73.1693 15.7225 64.8501L31.3228 20.3288Z" fill="#FDE16D"/>
<path d="M47.1194 29.316C47.1194 27.6855 48.4411 26.3638 50.0716 26.3638C51.7021 26.3638 53.0239 27.6855 53.0239 29.316V38.4019C53.0239 40.0323 51.7021 41.3541 50.0716 41.3541C48.4411 41.3541 47.1194 40.0323 47.1194 38.4019V29.316Z" fill="#3C3C3C"/>
<path d="M60.3149 29.316C60.3149 27.6855 61.6367 26.3638 63.2672 26.3638C64.8977 26.3638 66.2194 27.6855 66.2194 29.316V38.4019C66.2194 40.0323 64.8977 41.3541 63.2672 41.3541C61.6367 41.3541 60.3149 40.0323 60.3149 38.4019V29.316Z" fill="#3C3C3C"/>
<path d="M40.0915 42.9073C41.0841 42.8915 41.9134 43.6252 42.0416 44.5857C42.0431 44.5906 42.0447 44.5962 42.0465 44.6022C42.072 44.686 42.1194 44.8217 42.1923 45.001C42.3376 45.3587 42.5594 45.8268 42.8486 46.3143C43.5482 47.494 44.3481 48.3322 45.6571 49.6876C46.1523 50.2004 46.69 50.4393 47.803 50.9822C49.112 51.6208 50.0712 51.7209 50.8546 51.8258C51.6825 51.911 53.266 51.9958 54.4875 52.0429H54.4877C54.6906 52.0503 55.1393 52.053 55.7583 52.0994C56.8252 52.1794 57.6254 53.1093 57.5454 54.1762C57.4654 55.2431 56.5355 56.043 55.4686 55.963C54.9476 55.924 54.6777 55.9268 54.3468 55.9148H54.3448L54.3429 55.9145C53.1083 55.867 51.3912 55.7777 50.4293 55.677L50.4004 55.6741L50.3715 55.6702C49.5762 55.5628 48.0486 55.413 46.1042 54.4644C45.2197 54.0329 43.9459 53.4931 42.8702 52.3792C41.6034 51.0675 40.4822 49.9197 39.516 48.2906C39.1219 47.6261 38.8158 46.9837 38.6028 46.4596C38.4966 46.1983 38.4072 45.9504 38.3403 45.7311C38.297 45.5887 38.1911 45.2388 38.1853 44.8751C38.1683 43.8054 39.0218 42.9244 40.0915 42.9073ZM42.0594 44.8135C42.0589 44.7855 42.0574 44.7596 42.056 44.7364C42.0574 44.7619 42.0589 44.7877 42.0594 44.8135Z" fill="#3C3C3C"/>
<path d="M25.3251 48.4289C24.599 48.4581 21.221 47.7302 16.627 45.3084C15.2365 44.3013 13.9293 42.7066 12.537 40.672C11.9725 39.7997 11.6962 39.2526 11.1978 38.2939" stroke="#FDE16D" stroke-width="7.44332" stroke-linecap="round"/>
<path d="M69.3647 46.1119C69.7974 46.1119 71.3213 45.787 72.2717 45.226C72.6846 44.9823 73.83 44.003 75.7589 42.1489C78.9451 38.5629 79.5091 37.7509 79.91 37.0951C80.0827 36.8151 80.1926 36.6421 80.4584 36.2344" stroke="#FDE16D" stroke-width="7.44332" stroke-linecap="round"/>
</g>
<defs>
<clipPath id="clip0_842_43757">
<rect width="94.3633" height="94.3633" rx="47.1816" fill="white"/>
</clipPath>
</defs>
</svg>
