<svg width="95" height="95" viewBox="0 0 95 95" fill="none" xmlns="http://www.w3.org/2000/svg">
<rect width="94.3633" height="94.3633" rx="47.1816" fill="#FFE7E1"/>
<rect x="18.4607" y="18.4586" width="57.4419" height="57.4419" rx="11.4513" fill="#FF8A65"/>
<path d="M71.4426 40.575C71.9211 40.7636 76.0483 44.6281 80.1189 49.8198C80.7459 50.8528 81.1131 51.6834 81.338 52.2415C81.5629 52.7997 81.6344 53.0601 81.8694 53.7833" stroke="#FF8A65" stroke-width="7.44332" stroke-linecap="round"/>
<path d="M21.1074 40.575C20.629 40.7636 16.5018 44.6281 12.4311 49.8198C11.8042 50.8528 11.4369 51.6834 11.212 52.2415C10.9871 52.7997 10.9157 53.0601 10.6807 53.7833" stroke="#FF8A65" stroke-width="7.44332" stroke-linecap="round"/>
<path d="M33.6033 36.4035C33.6033 34.773 34.925 33.4512 36.5555 33.4512C38.186 33.4512 39.5077 34.773 39.5077 36.4035V45.4893C39.5077 47.1198 38.186 48.4416 36.5555 48.4416C34.925 48.4416 33.6033 47.1198 33.6033 45.4893V36.4035Z" fill="#3C3C3C"/>
<path d="M46.7988 36.4035C46.7988 34.773 48.1206 33.4512 49.7511 33.4512C51.3815 33.4512 52.7033 34.773 52.7033 36.4035V45.4893C52.7033 47.1198 51.3815 48.4416 49.7511 48.4416C48.1206 48.4416 46.7988 47.1198 46.7988 45.4893V36.4035Z" fill="#3C3C3C"/>
<path d="M63.0618 50.9829C62.0692 50.9671 61.2399 51.7009 61.1117 52.6613C61.1102 52.6662 61.1087 52.6718 61.1068 52.6778C61.0813 52.7616 61.0339 52.8973 60.961 53.0767C60.8157 53.4343 60.5939 53.9024 60.3047 54.3899C59.6051 55.5696 58.8052 56.4078 57.4962 57.7632C57.001 58.276 56.4633 58.5149 55.3503 59.0578C54.0413 59.6964 53.0822 59.7965 52.2987 59.9014C51.4708 59.9866 49.8874 60.0715 48.6658 60.1185H48.6656C48.4627 60.1259 48.0141 60.1286 47.395 60.1751C46.3282 60.255 45.528 61.1849 45.6079 62.2518C45.688 63.3187 46.6178 64.1187 47.6847 64.0387C48.2057 63.9996 48.4756 64.0024 48.8066 63.9904H48.8085L48.8104 63.9901C50.0451 63.9426 51.7621 63.8533 52.724 63.7526L52.7529 63.7497L52.7818 63.7458C53.5772 63.6384 55.1047 63.4886 57.0491 62.54C57.9337 62.1085 59.2074 61.5687 60.2831 60.4548C61.5499 59.1431 62.6712 57.9953 63.6373 56.3663C64.0314 55.7017 64.3375 55.0593 64.5505 54.5353C64.6567 54.2739 64.7462 54.026 64.813 53.8067C64.8563 53.6643 64.9622 53.3144 64.968 52.9508C64.985 51.8811 64.1315 51 63.0618 50.9829ZM61.094 52.8891C61.0944 52.8611 61.0959 52.8352 61.0974 52.812C61.0959 52.8375 61.0944 52.8633 61.094 52.8891Z" fill="#3C3C3C"/>
</svg>
