<svg width="95" height="95" viewBox="0 0 95 95" fill="none" xmlns="http://www.w3.org/2000/svg">
<rect width="94.3633" height="94.3633" rx="47.1816" fill="#FFE2EC"/>
<path d="M73.8604 50.0512C73.8526 50.0512 73.8449 50.0512 75.496 50.0512C77.1471 50.0512 80.4575 50.0512 82.2639 49.9985C84.0703 49.9457 84.2724 49.8402 84.8241 49.6441" stroke="#F06292" stroke-width="7.44332" stroke-linecap="round"/>
<path d="M22.5618 57.4378C22.5468 57.4378 21.5604 57.4768 19.5276 57.6217C18.4735 57.7277 17.3735 57.8995 15.9344 57.9927C14.4953 58.086 12.7503 58.0957 10.832 58.156" stroke="#F06292" stroke-width="7.44332" stroke-linecap="round"/>
<path d="M15.2116 43.0223C13.8788 31.6543 19.602 22.3247 30.578 21.3839C36.7716 20.9919 43.5924 25.6175 47.1989 32.9871C50.0997 25.4607 55.7445 20.9135 63.7413 21.3839C74.7173 22.1679 80.8325 31.8111 79.0293 43.0223C76.9125 56.2719 68.6021 68.3456 50.0997 78.8512C48.1397 79.792 45.5525 79.6352 42.8085 78.0672C25.2468 67.7184 16.7796 56.0367 15.2116 43.0223Z" fill="#F06292"/>
<path d="M35.8782 42.2128C35.8782 40.5823 37.1999 39.2606 38.8304 39.2606C40.4609 39.2606 41.7827 40.5823 41.7827 42.2128V51.2987C41.7827 52.9291 40.4609 54.2509 38.8304 54.2509C37.1999 54.2509 35.8782 52.9291 35.8782 51.2987V42.2128Z" fill="#3C3C3C"/>
<path d="M49.0737 42.2128C49.0737 40.5823 50.3955 39.2606 52.026 39.2606C53.6564 39.2606 54.9782 40.5823 54.9782 42.2128V51.2987C54.9782 52.9291 53.6564 54.2509 52.026 54.2509C50.3955 54.2509 49.0737 52.9291 49.0737 51.2987V42.2128Z" fill="#3C3C3C"/>
<path d="M44.5909 62.9112C45.0704 62.042 46.1192 61.6869 47.0164 62.0529C47.0214 62.0541 47.027 62.0555 47.0331 62.0569C47.1185 62.0764 47.2599 62.1027 47.4517 62.1285C47.8342 62.1801 48.3507 62.2202 48.9175 62.2116C50.2888 62.1906 51.4138 61.913 53.2404 61.4505C53.9315 61.2756 54.406 60.9276 55.4301 60.2316C56.6348 59.4129 57.1983 58.6303 57.6785 58.0026C58.1639 57.3264 59.0244 55.9945 59.6722 54.9578L59.6723 54.9576C59.7795 54.7852 60.0048 54.3972 60.3527 53.8831C60.9522 52.997 62.1568 52.7646 63.0429 53.3642C63.929 53.9637 64.1612 55.1682 63.5616 56.0543C63.2688 56.487 63.1372 56.7227 62.9623 57.0039L62.9613 57.0055L62.9601 57.0071C62.3054 58.0549 61.3747 59.5005 60.8093 60.2853L60.7925 60.3089L60.7748 60.3321C60.2863 60.9689 59.3973 62.2201 57.6079 63.4361C56.7939 63.9893 55.6925 64.8264 54.1913 65.2065C52.4236 65.654 50.8704 66.0567 48.9766 66.0856C48.204 66.0974 47.4944 66.0439 46.9339 65.9683C46.6543 65.9306 46.3947 65.8851 46.1712 65.8341C46.0261 65.801 45.6698 65.7189 45.3514 65.5433C44.4146 65.0265 44.0741 63.848 44.5909 62.9112ZM47.2229 62.1507C47.1984 62.1372 47.1752 62.1256 47.1543 62.1153C47.1771 62.1268 47.2003 62.1383 47.2229 62.1507Z" fill="#3C3C3C"/>
</svg>
