<svg width="95" height="95" viewBox="0 0 95 95" fill="none" xmlns="http://www.w3.org/2000/svg">
<g clip-path="url(#clip0_842_43759)">
<rect width="94.3633" height="94.3633" rx="47.1816" fill="#D8EEFF"/>
<path d="M36.7679 11.3093C38.5172 7.76871 43.2412 7.02035 45.9992 9.84693L57.918 22.0621C58.7961 22.962 59.946 23.5479 61.1903 23.7292L78.0784 26.1907C81.9863 26.7603 84.1578 31.0218 82.3218 34.5183L74.3876 49.6284C73.8031 50.7417 73.6013 52.0164 73.8133 53.2557L76.691 70.0779C77.3569 73.9706 73.975 77.3527 70.0823 76.6871L53.2599 73.8105C52.0205 73.5985 50.7458 73.8005 49.6327 74.3851L34.523 82.3203C31.0267 84.1565 26.765 81.9853 26.1952 78.0774L23.7326 61.1894C23.5511 59.9452 22.9652 58.7953 22.0652 57.9173L9.84924 45.9993C7.02247 43.2415 7.77053 38.5175 11.311 36.7679L26.6114 29.2072C27.7387 28.6501 28.6512 27.7375 29.2082 26.6103L36.7679 11.3093Z" fill="#64B5F6"/>
<path d="M37.2551 34.8367C37.2551 33.2062 38.5769 31.8845 40.2074 31.8845C41.8378 31.8845 43.1596 33.2062 43.1596 34.8367V43.9226C43.1596 45.553 41.8378 46.8748 40.2074 46.8748C38.5769 46.8748 37.2551 45.553 37.2551 43.9226V34.8367Z" fill="#3C3C3C"/>
<path d="M50.4507 34.8367C50.4507 33.2062 51.7724 31.8845 53.4029 31.8845C55.0334 31.8845 56.3552 33.2062 56.3552 34.8367V43.9226C56.3552 45.553 55.0334 46.8748 53.4029 46.8748C51.7724 46.8748 50.4507 45.553 50.4507 43.9226V34.8367Z" fill="#3C3C3C"/>
<path d="M58.9823 55.9636C58.2508 56.6347 57.1435 56.637 56.4097 56.0042C56.4054 56.0015 56.4005 55.9984 56.3951 55.9951C56.3204 55.9494 56.1948 55.8794 56.0212 55.7937C55.6751 55.6229 55.1983 55.4203 54.6584 55.2479C53.3518 54.8307 52.1971 54.7353 50.3183 54.5915C49.6075 54.5371 49.0469 54.7157 47.8543 55.049C46.4515 55.441 45.668 56.0032 45.0127 56.4452C44.3372 56.9314 43.0971 57.9197 42.1527 58.6958L42.1525 58.696C41.9959 58.8252 41.6587 59.1211 41.1651 59.4976C40.3144 60.1464 39.0986 59.9827 38.4498 59.132C37.801 58.2813 37.9648 57.0657 38.8155 56.4169C39.2309 56.1001 39.4308 55.9186 39.6862 55.7079L39.6877 55.7066L39.6893 55.7055C40.6438 54.921 41.9867 53.8473 42.7727 53.2837L42.7962 53.2667L42.8204 53.2504C43.4863 52.8024 44.7278 51.8999 46.8114 51.3175C47.7592 51.0526 49.0699 50.6101 50.614 50.7283C52.4322 50.8676 54.0327 50.9809 55.837 51.557C56.573 51.7921 57.2286 52.0689 57.7358 52.3193C57.9888 52.4441 58.2203 52.57 58.4159 52.6896C58.5429 52.7672 58.8545 52.9585 59.1003 53.2265C59.8236 54.0148 59.7707 55.2404 58.9823 55.9636ZM56.2452 55.8456C56.2641 55.8663 56.2824 55.8846 56.299 55.9011C56.2809 55.8829 56.2626 55.8647 56.2452 55.8456Z" fill="#3C3C3C"/>
<path d="M24.4672 56.2469C24.2164 56.3354 23.102 57.0911 19.8159 60.7088C17.524 63.7355 17.0759 64.4634 16.6543 65.0739C16.3744 65.4963 15.9602 66.1472 15.2065 67.1946" stroke="#64B5F6" stroke-width="7.44332" stroke-linecap="round"/>
<path d="M73.9216 46.8865C73.9216 46.871 74.8449 46.8361 77.6169 47.0484C79.4656 47.2876 82.2119 47.7937 83.7278 48.0691C85.2438 48.3445 85.4461 48.3739 86.1522 48.6632" stroke="#64B5F6" stroke-width="7.44332" stroke-linecap="round"/>
</g>
<defs>
<clipPath id="clip0_842_43759">
<rect width="94.3633" height="94.3633" rx="47.1816" fill="white"/>
</clipPath>
</defs>
</svg>
